<svg xmlns="http://www.w3.org/2000/svg" width="1024" height="1024" viewBox="0 0 270.933 270.933"><path d="M0 0h270.933v270.933H0z" fill="none"/><path d="M231.422 124.178H214.49V79.022c0-12.418-10.16-22.578-22.578-22.578h-45.155V39.511c0-15.579-12.644-28.222-28.223-28.222-15.578 0-28.222 12.643-28.222 28.222v16.933H45.156c-12.418 0-22.465 10.16-22.465 22.578v42.898h16.82c16.82 0 30.48 13.66 30.48 30.48s-13.66 30.48-30.48 30.48H22.578v42.898c0 12.418 10.16 22.578 22.578 22.578h42.897v-16.934c0-16.82 13.66-30.48 30.48-30.48s30.48 13.66 30.48 30.48v16.934h42.898c12.418 0 22.578-10.16 22.578-22.578v-45.156h16.933c15.579 0 28.222-12.643 28.222-28.222s-12.643-28.222-28.222-28.222z" fill="#ff8900"/></svg>